<svg xmlns="http://www.w3.org/2000/svg" viewBox="0 0 82.29 51.7"><defs><style>.cls-1{fill:#ea5155;fill-rule:evenodd;}</style></defs><title>Fichier 2</title><g id="Calque_2" data-name="Calque 2"><g id="logo"><path class="cls-1" d="M42.15,15.14c-.06.25-.13.5-.18.76-.18,1-.34,2-.52,2.94-.07.37-.17.74-.27,1.1a.74.74,0,0,1-.8.56.64.64,0,0,1-.42-.22,2.91,2.91,0,0,1-.41-.78c-.34-1.07-.65-2.16-1-3.23A13.22,13.22,0,0,0,38,15s0-.05-.11-.11v.74c0,1.1,0,2.19.05,3.28l.09,4a21.89,21.89,0,0,1-.11,3.53,1.54,1.54,0,0,1-1.82,1.37,2.42,2.42,0,0,1-2-1.55,8,8,0,0,1-.35-.93,1.48,1.48,0,0,1,.18-1.16,1,1,0,0,1,1.39-.37l.55.31c0-.11,0-.19,0-.26,0-1.23,0-2.46-.08-3.69,0-.86-.13-1.72-.2-2.57,0-.39,0-.79,0-1.18,0-1.42-.05-2.85-.09-4.28,0-.39-.13-.77-.15-1.16,0-.65-.05-1.29-.06-1.94s0-1.28,0-1.91c0-.3-.09-.59-.09-.89A1.37,1.37,0,0,1,35.92,5a1,1,0,0,1,1.28.39A9,9,0,0,1,38,7.52c.09.39.28.76.41,1.15.19.55.35,1.11.56,1.65s.49,1.15.73,1.72c.06.13.11.27.17.4h.07c0-.08.05-.16.06-.23.13-.77.22-1.53.39-2.29.22-1,.47-1.95.77-2.9a8.64,8.64,0,0,1,.73-1.61,1.49,1.49,0,0,1,1-.74.81.81,0,0,1,.73.19,1.61,1.61,0,0,1,.58,1l.33,3.47c0,.56.09,1.12.12,1.67.1,1.69.16,3.38.28,5.07s.31,3.64.49,5.46c.06.62.19,1.22.29,1.84A7.15,7.15,0,0,0,46,24.54a5.83,5.83,0,0,0,.79,1.81.85.85,0,0,0,.29.24c.2.1.41.17.6.26a.91.91,0,0,1,.43,1.32c-.38.71-.87.88-1.75.68A2.89,2.89,0,0,1,44.94,28a5.12,5.12,0,0,1-1.33-2.14,16.34,16.34,0,0,1-.52-2.28c-.12-.76-.12-1.53-.21-2.29s-.26-1.81-.38-2.72c0-.27,0-.54,0-.81-.06-.83-.14-1.66-.22-2.48a.76.76,0,0,0,0-.16Z"/><path class="cls-1" d="M32.11,14.31c0,1.81-.09,3.61-.14,5.41,0,1.24,0,2.48-.07,3.71,0,1.5-.06,3-.1,4.51a2.12,2.12,0,0,1-.17.69.73.73,0,0,1-.8.42,1.33,1.33,0,0,1-1.1-1.21c0-1.13.1-2.26.15-3.4s.13-2.21.17-3.32c.07-1.49.11-3,.17-4.48,0-.63,0-.62-.61-.64-.9,0-1.8-.06-2.69-.1-.2,0-.28,0-.3.23-.11,1.1-.21,2.21-.35,3.31-.06.51-.19,1-.29,1.53a7.55,7.55,0,0,0-.13.83,5.74,5.74,0,0,1-.51,1.95c-.25.55-.54,1.08-.83,1.61a1.74,1.74,0,0,1-.29.38,8.26,8.26,0,0,1-.91,1,3.51,3.51,0,0,1-1.15.65,3.22,3.22,0,0,1-3-1,6.28,6.28,0,0,1-1.18-2.52,3.33,3.33,0,0,1,.15-2A1.55,1.55,0,0,1,19.51,21a1.21,1.21,0,0,1,.93.88,7,7,0,0,0,.24,1c.18.53.41.58,1,.45a2.33,2.33,0,0,0,1.55-1.43A11.93,11.93,0,0,0,24.07,19c.15-.67.2-1.36.3-2,0-.23.09-.46.13-.68s0-.29-.28-.28a2.33,2.33,0,0,1-.79-.06.81.81,0,0,1-.47-.37c-.27-.64-.12-1.4.77-1.47a6.28,6.28,0,0,1,1,0c.24,0,.29-.07.3-.28.08-1.24.13-2.48.26-3.72a19.09,19.09,0,0,1,.41-2.38,3.43,3.43,0,0,1,1.68-2.36,2.57,2.57,0,0,1,.9-.29,4.09,4.09,0,0,1,2.53.41,1.16,1.16,0,0,1,.49.58,13.74,13.74,0,0,1,.42,1.59,10.13,10.13,0,0,1,.18,1.23c0,.64,0,1.28,0,1.91,0,1.18.09,2.35.13,3.52Zm-5.27-1h0l0,.4c0,.49,0,.49.44.53h.08l2.29-.07c.14,0,.28,0,.25-.22a6.66,6.66,0,0,0-.11-.78c-.22-.9-.45-1.79-.69-2.69a2.31,2.31,0,0,0-.51-1.07.6.6,0,0,0-1,.14A7.42,7.42,0,0,0,27,11.2,21.13,21.13,0,0,0,26.84,13.32Z"/><path class="cls-1" d="M56.93,17.09c-.1,1.28-.14,2.35-.29,3.4a12.86,12.86,0,0,1-.52,1.91q-.34,1.19-.72,2.37a3.86,3.86,0,0,1-1.52,2l-.34.27a1.94,1.94,0,0,1-1.13.4,4.75,4.75,0,0,1-2.08-.34,3.84,3.84,0,0,1-1.47-1.22,7.34,7.34,0,0,1-1.18-3.3c-.12-.81-.3-1.63-.34-2.44-.05-1.14,0-2.28,0-3.42a21.29,21.29,0,0,1,.47-3.56,23.71,23.71,0,0,1,.63-2.87,4.85,4.85,0,0,1,1.1-2c.28-.29.52-.63.82-.9A1.74,1.74,0,0,1,51.88,7c.37,0,.74.11,1.11.19A3.18,3.18,0,0,1,54.74,8.4a9.75,9.75,0,0,1,1.5,2.69,4.67,4.67,0,0,1,.36,1.56c0,.48.19.95.22,1.43C56.88,15.16,56.9,16.23,56.93,17.09Zm-7.5,1.81h.07a11.41,11.41,0,0,0,0,1.17,4.07,4.07,0,0,0,.93,2.3,1.33,1.33,0,0,0,2.17-.09,6.58,6.58,0,0,0,.93-1.78,13.27,13.27,0,0,0,1-5.23,3.62,3.62,0,0,1,0-.47,3.63,3.63,0,0,0-.48-2.12,12.91,12.91,0,0,0-.87-1.35,3.05,3.05,0,0,0-.46-.55.75.75,0,0,0-1.15.1c-.23.3-.4.64-.61.95a9.1,9.1,0,0,0-1.4,4C49.5,16.86,49.49,17.88,49.43,18.9Z"/><path class="cls-1" d="M58.41,21c-.1-1.12-.2-2.25-.29-3.38-.1-1.32-.18-2.64-.26-4l-.21-3c-.06-.85-.12-1.69-.2-2.53-.06-.64-.16-1.27-.22-1.9a2.51,2.51,0,0,1,0-.67A1.38,1.38,0,0,1,59,4.33a.82.82,0,0,1,.49.41,2.5,2.5,0,0,1,.29,1c0,.88.06,1.76,0,2.64s-.1,2-.08,3c0,1.2.14,2.39.19,3.59,0,.42-.06.85,0,1.28,0,1.59.09,3.18.18,4.76a3.92,3.92,0,0,0,.44,1.83.89.89,0,0,0,1.31.31,1.42,1.42,0,0,0,.35-.61c.23-.61.47-1.23.64-1.86s.34-1.48.47-2.22a14,14,0,0,0,.18-1.57c0-.63,0-1.26,0-1.89,0-1.24.06-2.49.05-3.73,0-1.06,0-2.11-.08-3.16,0-.64-.14-1.27-.19-1.91a7.22,7.22,0,0,1,0-.93.66.66,0,0,1,.37-.61,4.46,4.46,0,0,1,.92-.41.81.81,0,0,1,1,.55,3,3,0,0,1,.13,1.4c-.2,1.64-.13,3.28-.17,4.93-.05,2-.08,4-.15,6S65.21,21,65.12,23c0,.63,0,1.26,0,1.89a3.43,3.43,0,0,1-1.16,2.5,1.88,1.88,0,0,1-1.55.59c-.47-.05-.94-.05-1.41-.11A1.52,1.52,0,0,1,60,27.3a6.26,6.26,0,0,1-1.4-2.85A16.22,16.22,0,0,1,58.34,21Z"/><path class="cls-1" d="M69.31,18.44c0,1.21.09,2.42.15,3.63,0,.71.09,1.42.11,2.13a7.82,7.82,0,0,1-.18,2.31.82.82,0,0,1-.78.61.88.88,0,0,1-.8-.75,4.33,4.33,0,0,1,0-.81c0-.11,0-.22,0-.33,0-1-.08-2-.1-3,0-1.21-.06-2.42,0-3.64,0-.71.12-1.43.15-2.14,0-1,.06-2,.08-2.94,0-.59,0-1.19,0-1.78s.14-1.33.22-2c0-.32.07-.64.09-1,.06-.72.08-1.45.16-2.17A15.64,15.64,0,0,1,68.69,5a1.15,1.15,0,0,1,1.12-.85h.48a2.08,2.08,0,0,1,1.46.42,4.9,4.9,0,0,1,1.51,1.63,7.37,7.37,0,0,1,.94,4.31,5.3,5.3,0,0,1-1.36,3,.69.69,0,0,0-.16.88c.66,1.57,1.26,3.15,1.95,4.71.51,1.15,1.11,2.27,1.68,3.39.32.61.69,1.2,1,1.81a4.2,4.2,0,0,1,.43,1.31c.09.61-.73,1.2-1.32,1A2.22,2.22,0,0,1,75,25.24c-.42-.9-.77-1.83-1.23-2.7a26.55,26.55,0,0,1-1.14-2.83c-.21-.53-.48-1-.69-1.58s-.45-1.26-.69-1.89c-.12-.32-.26-.63-.39-.95,0-.11-.11-.11-.23-.06a5.64,5.64,0,0,1-.86.33c-.16,0-.27.11-.29.27s-.08.53-.09.79c0,.6,0,1.21,0,1.82Z"/><path class="cls-1" d="M8.08,21.94c0-1.41.12-2.9.14-4.39s0-3.1,0-4.65c0-1.35-.14-2.7-.23-4.06-.06-.78-.17-1.57-.2-2.36s0-1.59,0-2.39.05-1.35.12-2a2.65,2.65,0,0,1,1-1.9,1,1,0,0,1,1.36.32,3.25,3.25,0,0,1,.18,1.41c0,.68-.06,1.36-.07,2,0,1.36-.06,2.73-.1,4.09s-.1,2.57-.15,3.85c-.06,1.43-.13,2.86-.16,4.29,0,.66.05,1.32.06,2s0,1.39,0,2.08a26.54,26.54,0,0,0,.21,2.83,1.62,1.62,0,0,0,.8,1.28.58.58,0,0,0,.87-.27,9.44,9.44,0,0,0,1-3.24,1.46,1.46,0,0,1,.6-1,1,1,0,0,1,1-.09,1,1,0,0,1,.74,1.13c-.07.81-.16,1.62-.3,2.42s-.31,1.56-.5,2.34a2.27,2.27,0,0,1-1.2,1.6c-.22.11-.4.29-.62.38a4,4,0,0,1-2.07.06,2.69,2.69,0,0,1-1.6-1.09,3.1,3.1,0,0,1-.84-2.14C8.06,23.61,8.08,22.82,8.08,21.94Z"/><path class="cls-1" d="M9,46.54C9,45.25,9,44,9,42.66c0-.74,0-.59-.61-.61L6.55,42c-.19,0-.24.07-.25.24-.06.94-.07,1.88-.22,2.81A12.11,12.11,0,0,1,5.5,48,6.19,6.19,0,0,1,4.19,50a2.22,2.22,0,0,1-3.3-.23A4,4,0,0,1,0,47.07,1.13,1.13,0,0,1,1,46a.79.79,0,0,1,.88.52c.07.24.09.49.17.72.16.48.41.57.9.41A1.81,1.81,0,0,0,4,46.46a6.5,6.5,0,0,0,.47-1.78c.12-.73.21-1.48.31-2.22,0-.25,0-.3-.29-.28a3.79,3.79,0,0,1-.58,0A.44.44,0,0,1,3.66,42,.74.74,0,0,1,4,40.82a4.42,4.42,0,0,1,.81-.06c.18,0,.26-.06.26-.25,0-.8,0-1.61.08-2.41a6.9,6.9,0,0,1,.63-3A2,2,0,0,1,7.59,34a11.16,11.16,0,0,1,1.28.15.83.83,0,0,1,.7.62,9.61,9.61,0,0,1,.51,2.81c.05,1.29.16,2.58.23,3.87,0,.6.08,1.2.09,1.8,0,1,0,2,0,3,0,1.54,0,3.08,0,4.62a1.44,1.44,0,0,1-.22.64.48.48,0,0,1-.59.16,1,1,0,0,1-.73-1c0-1.35,0-2.71.08-4.07ZM6.41,39.59c0,.33,0,.66,0,1s.06.25.24.24c.43,0,.87,0,1.3-.06.84-.08.86.07.65-.85a15.82,15.82,0,0,0-.45-1.53,3.1,3.1,0,0,0-.51-1.16.41.41,0,0,0-.5-.13.81.81,0,0,0-.33.38A6,6,0,0,0,6.41,39.59Z"/><path class="cls-1" d="M22.58,45.68c-.1.17-.17.28-.23.4a5.06,5.06,0,0,1-1.61,1.86,3.08,3.08,0,0,1-2.25.41.73.73,0,0,1-.6-.6,1.14,1.14,0,0,1,.28-1.15,1,1,0,0,1,.35-.21,4.47,4.47,0,0,0,1.71-.94,3.61,3.61,0,0,0,1.3-2,.66.66,0,0,0,0-.37c-.37-.94-.77-1.88-1.14-2.83-.3-.76-.56-1.54-.84-2.32s-.63-1.59-.9-2.4a4,4,0,0,1-.37-2,.9.9,0,0,1,.75-.74.87.87,0,0,1,1,.65c.32,1.14.65,2.27.94,3.42a17.16,17.16,0,0,0,1.23,3l.27.59a1.84,1.84,0,0,0,.17.25c.09-.35.18-.62.24-.89.29-1.28.56-2.56.83-3.84a11.36,11.36,0,0,1,.63-2.23c.14-.32.28-.62.72-.7s.83.25.9.77a2.85,2.85,0,0,1-.33,1.46,12.73,12.73,0,0,0-.48,1.35c-.24.91-.51,1.82-.67,2.74A23.09,23.09,0,0,0,24,43.37a5.17,5.17,0,0,0,.35,1.87,2.1,2.1,0,0,0,.83.89c.35.23.7.47,1.06.68a5.93,5.93,0,0,0,.69.29c.25.08.54.09.7.34a.74.74,0,0,1-.59,1.1,3.92,3.92,0,0,1-3-1,4.87,4.87,0,0,1-1.19-1.49A3.19,3.19,0,0,0,22.58,45.68Z"/><path class="cls-1" d="M39.48,44.59c0,1.12.08,2.1.09,3.08a4.92,4.92,0,0,1-.2,1.87.59.59,0,0,1-.52.44.63.63,0,0,1-.59-.42,1.41,1.41,0,0,1-.07-.45c0-1,0-1.91,0-2.87,0-1.31,0-2.61.14-3.92.11-1.14.12-2.28.2-3.42.06-.77.18-1.53.27-2.3.06-.58.1-1.16.18-1.74s.15-.91.26-1.36a.86.86,0,0,1,.88-.62,2,2,0,0,1,1.31.25,3.58,3.58,0,0,1,1.32,1.59,9,9,0,0,1,.47,1.5,4.37,4.37,0,0,1-.19,2.29,4.2,4.2,0,0,1-1,1.53.4.4,0,0,0-.08.31c.34,1,.66,2,1.07,3,.5,1.18,1.07,2.33,1.61,3.49.28.59.59,1.17.84,1.77a.8.8,0,0,1-.91,1.15,1,1,0,0,1-.73-.5c-.3-.56-.57-1.13-.83-1.7s-.48-1.07-.68-1.62c-.36-.93-.7-1.87-1-2.81-.21-.57-.38-1.16-.58-1.73-.1-.29-.13-.28-.41-.16a2.54,2.54,0,0,1-.44.15.33.33,0,0,0-.32.33,1.54,1.54,0,0,0,0,.3C39.53,42.93,39.5,43.83,39.48,44.59Z"/><path class="cls-1" d="M45.36,41.2a12.23,12.23,0,0,1,.36-3.13c.18-.78.32-1.56.54-2.33a4.55,4.55,0,0,1,1.18-1.88,1.46,1.46,0,0,1,1.21-.45,2.74,2.74,0,0,1,2.43,1.69c.2.43.4.85.59,1.28a2.74,2.74,0,0,1,.18.62A15.19,15.19,0,0,1,52,40.75c-.08.66-.07,1.33-.17,2a12.27,12.27,0,0,1-.44,1.46c-.12.42-.24.83-.38,1.24a4.32,4.32,0,0,1-.38.85A3,3,0,0,1,50,47a2.25,2.25,0,0,1-2.78.35,2.6,2.6,0,0,1-1.45-1.89,20.35,20.35,0,0,1-.36-2.21c-.08-.68-.1-1.35-.15-2Zm1.48.47a7.08,7.08,0,0,0,0,1,4.79,4.79,0,0,0,.32,1,1.18,1.18,0,0,0,1.11.78.63.63,0,0,0,.38-.15,3.39,3.39,0,0,0,.92-1.38,10.48,10.48,0,0,0,.9-4.33,1.11,1.11,0,0,0,0-.19,4.54,4.54,0,0,0-1.1-2.21c-.34-.43-.64-.42-1,0a7.39,7.39,0,0,0-1.15,2.21A11.83,11.83,0,0,0,46.84,41.67Z"/><path class="cls-1" d="M16.54,35.8c0-.57-.07-1.16-.12-1.75a1,1,0,0,1,.28-.87.55.55,0,0,1,.93.19,1.78,1.78,0,0,1,.12.6c0,1-.07,1.92-.1,2.87-.08,1.86-.14,3.72-.24,5.58-.07,1.19-.2,2.38-.31,3.58a15.16,15.16,0,0,1-.2,1.65,3.18,3.18,0,0,1-1.28,1.87.66.66,0,0,1-.42.15c-.49,0-1-.12-1.45-.15-1.1-.06-1.42-.92-1.81-1.69a5.46,5.46,0,0,1-.42-2.15c-.12-1.56-.2-3.12-.29-4.68,0-.3,0-.59,0-.89,0-1.15-.09-2.31-.07-3.47,0-.88-.06-1.75-.13-2.62a.87.87,0,0,1,1.25-1,.73.73,0,0,1,.41.67,7,7,0,0,1,0,1.12c0,1.3-.1,2.6-.11,3.9,0,1.05.08,2.09.08,3.14A20,20,0,0,0,13,45.35a3.16,3.16,0,0,0,.41,1.36,1,1,0,0,0,.8.45.59.59,0,0,0,.35-.14,1.5,1.5,0,0,0,.47-.7c.19-.57.46-1.12.65-1.7A7.32,7.32,0,0,0,16,43.24c.1-1.06.16-2.12.24-3.18.07-.88.15-1.76.22-2.64C16.47,36.89,16.5,36.36,16.54,35.8Z"/><path class="cls-1" d="M53,43.11c-.06-1-.13-2.07-.19-3.11,0-.62,0-1.24-.07-1.86-.06-1.35-.12-2.7-.19-4,0-.46-.1-.91-.12-1.36a1,1,0,0,1,1.36-1c.27.09.34.38.39.63a3.89,3.89,0,0,1,0,.76c0,1.22-.12,2.44-.14,3.66,0,.7,0,1.4.06,2.1s0,1.15,0,1.72c0,.88,0,1.76,0,2.64a6.85,6.85,0,0,0,.21,1.17.64.64,0,0,0,.57.46.44.44,0,0,0,.53-.26,13.32,13.32,0,0,0,.95-2.88,22.45,22.45,0,0,0,.24-3.84c0-.67.09-1.34.08-2,0-1-.06-2-.1-3,0-.72.09-1,1-1.2a.53.53,0,0,1,.63.33,2.48,2.48,0,0,1,.07,1.35c-.05.72-.1,1.45-.14,2.17l-.36,6.7c-.06,1.06-.12,2.13-.19,3.2a4.27,4.27,0,0,1-.26,1.5,2.49,2.49,0,0,1-1.16,1.15.49.49,0,0,1-.24,0l-1.1-.07a1.28,1.28,0,0,1-.91-.51,4.27,4.27,0,0,1-.81-1.77A8.68,8.68,0,0,1,53,43.11Z"/><path class="cls-1" d="M79,31.7a3.19,3.19,0,0,1,1.82.37,1.1,1.1,0,0,1,.67.86c0,.16,0,.33,0,.5a.73.73,0,0,1-.51.79.86.86,0,0,1-.9-.22A.73.73,0,0,0,79,34a1.78,1.78,0,0,0-.47,1.73,8.56,8.56,0,0,0,1.18,2.66c.45.73.88,1.47,1.32,2.21.23.39.45.79.67,1.19a4.42,4.42,0,0,1,.52,2.36,5.78,5.78,0,0,0,0,.72,1.47,1.47,0,0,1-.29,1c-.22.29-.44.59-.67.88a2.86,2.86,0,0,1-1.2.8c-.51.2-1,.36-1.55.53a1.33,1.33,0,0,1-1.56-.5,1.45,1.45,0,0,1,.3-1.78c.31-.26.64-.16,1-.1.16,0,.31.1.46.14a.91.91,0,0,0,.82-.07,2,2,0,0,0,.88-1.08,4.83,4.83,0,0,1,.16-.5,3,3,0,0,0-.16-1.89,7.43,7.43,0,0,0-1.62-2.62c-.71-.88-1.42-1.78-2.07-2.71a5,5,0,0,1-1-2.84,2.19,2.19,0,0,1,1-1.88,3.08,3.08,0,0,1,1.69-.54A5.19,5.19,0,0,1,79,31.7Z"/><path class="cls-1" d="M72.68,38.78h.81a.82.82,0,0,1,.8.48.58.58,0,0,1-.07.63.63.63,0,0,1-.64.35L72,40.09h0c-.53-.05-.52,0-.54.47,0,.82-.1,1.65-.13,2.47,0,.66,0,1.32,0,2a.77.77,0,0,0,.72.81c.48.09,1,.14,1.45.19s1.23.12,1.85.18a1.18,1.18,0,0,1,.85.54.75.75,0,0,1-.44,1.11A6.19,6.19,0,0,1,74.5,48c-1,0-2.08-.1-3.12-.15s-1.19-.39-1.28-1.3a14.79,14.79,0,0,1,0-1.49c0-1.08,0-2.17.08-3.25,0-.76,0-1.52.07-2.28.06-1.36.15-2.73.19-4.1,0-.88,0-1.77,0-2.65,0-.07,0-.13,0-.19a.83.83,0,0,1,.93-1c.77,0,1.54,0,2.32.05q.63,0,1.26.06a1.2,1.2,0,0,1,.86.41.55.55,0,0,1,0,.81,1.47,1.47,0,0,1-.91.37c-.51.06-1,.13-1.54.22a.75.75,0,0,0-.57.47,10.61,10.61,0,0,0-.89,3c-.1.52-.14,1.06-.23,1.59,0,.16,0,.21.2.2h.9Z"/><path class="cls-1" d="M69.84,44.36a3.47,3.47,0,0,1-1,2.56,1.5,1.5,0,0,1-1.17.65,6.18,6.18,0,0,1-1.77,0,.87.87,0,0,1-.65-.56.91.91,0,0,1,.2-1,.93.93,0,0,1,.41-.2c.43-.07.87-.13,1.31-.17A.9.9,0,0,0,68,45a3.82,3.82,0,0,0,.15-2.12,4.75,4.75,0,0,0-1.46-2.35,7.54,7.54,0,0,1-1.77-2.32,3.78,3.78,0,0,1-.33-1.65A8.65,8.65,0,0,1,65,34a2.45,2.45,0,0,1,1.68-1.68,4.07,4.07,0,0,1,1.62-.11,1.56,1.56,0,0,1,1.28,1.14c.06.28.07.57.11.85a.75.75,0,0,1-.4.72.71.71,0,0,1-.86-.11,2.17,2.17,0,0,1-.37-.31.38.38,0,0,0-.57,0,1.53,1.53,0,0,0-.5,1,4.45,4.45,0,0,0,.42,2.19c.28.72.56,1.45.85,2.16a10.16,10.16,0,0,0,.48,1,9,9,0,0,1,1,2.38A11.16,11.16,0,0,1,69.84,44.36Z"/><path class="cls-1" d="M61.15,47.25l-1.49-.1a.78.78,0,0,1-.65-.58,1.06,1.06,0,0,1,.5-1.34,1.78,1.78,0,0,1,1.28-.12,3.26,3.26,0,0,0,.69.09c.82,0,1.07-.32,1.33-1.12a2,2,0,0,0,0-1.2c-.21-.72-.37-1.46-.63-2.16a7,7,0,0,0-.73-1.18A15.7,15.7,0,0,1,60,37.59c-.19-.43-.46-.82-.68-1.23A4.85,4.85,0,0,1,59,34.44a1.69,1.69,0,0,1,0-.59,1.6,1.6,0,0,1,.92-1.08,3.58,3.58,0,0,1,1.32-.38A2.09,2.09,0,0,1,63,33a1.88,1.88,0,0,1,.67,1.57.69.69,0,0,1-.48.66.63.63,0,0,1-.73-.16c-.13-.14-.28-.27-.42-.4s-.27-.17-.37.07a1.89,1.89,0,0,0-.07,1A8.33,8.33,0,0,0,62.39,38a32.09,32.09,0,0,1,1.42,3.45,11.46,11.46,0,0,1,.41,1.38,12,12,0,0,1,.13,1.59,6.26,6.26,0,0,1,0,.75.93.93,0,0,1-.07.41,2.86,2.86,0,0,1-1.7,1.53,3.08,3.08,0,0,1-.75.09l-.68,0A.35.35,0,0,0,61.15,47.25Z"/><path class="cls-1" d="M34.65,41.53v3.76c0,.84,0,1.67,0,2.51,0,.23,0,.46-.28.57a.61.61,0,0,1-.65,0,.79.79,0,0,1-.27-.69c0-1,0-2,0-3,0-2,0-4,0-6,0-1.31-.08-2.62-.13-3.92,0-.38,0-.4-.42-.34s-.76.09-1.15.12-1,.07-1.48.09a1.92,1.92,0,0,1-.48-.07c-.45-.13-.53-.4-.54-.86,0-.27.26-.5.64-.53.7,0,1.4-.09,2.1-.09,1.67,0,3.34,0,5,0a6.34,6.34,0,0,1,1.14.14.74.74,0,0,1,.49.6.51.51,0,0,1-.41.58,2,2,0,0,1-.59.11c-.9,0-1.79-.07-2.69-.12-.24,0-.32,0-.32.29,0,1.66,0,3.32,0,5v2Z"/><path class="cls-1" d="M17.28,3.79a4.44,4.44,0,0,1-.81,2.68,2.72,2.72,0,0,0-.16.35A3.54,3.54,0,0,1,15,8.27a2.16,2.16,0,0,1-1.37.27.92.92,0,0,1-.77-.76,1.38,1.38,0,0,1,.45-1.24c.26-.22.55-.42.82-.63l.77-.58a2.77,2.77,0,0,0,.94-1.69c.07-.28.13-.57.2-.86a.6.6,0,0,1,.51-.44.57.57,0,0,1,.64.4,9.53,9.53,0,0,1,.2,1Z"/></g></g></svg>